<?xml version="1.0" encoding="utf-8"?>
<svg version="1.1" width="2160" height="1080" viewBox="930.262 439.008 287.265 137.66" xmlns="http://www.w3.org/2000/svg">
  <desc>Created with Fabric.js 5.2.4</desc>
  <g transform="matrix(1 0 0 1 1080 540)" id="a2b80d44-5ec5-4152-81cd-36ea281d05ce">
    <rect style="stroke: none; stroke-dasharray: none; stroke-linecap: butt; stroke-dashoffset: 0; stroke-linejoin: miter; stroke-miterlimit: 4; fill: rgb(255, 255, 255); fill-rule: nonzero; opacity: 1; visibility: hidden; stroke-width: 3px;" x="-1080" y="-540" rx="0" ry="0" width="2160" height="1080"/>
  </g>
  <g transform="matrix(0 0 0 0 0 0)" id="d3020812-0f20-438f-b12b-3369f8a992b7"/>
  <g transform="matrix(1 0 0 1 979.8 494.31)">
    <g style="" vector-effect="non-scaling-stroke">
      <g transform="matrix(0.97 0.23 -0.23 0.97 34.01 22.15)">
        <path style="stroke: rgb(23, 23, 29); stroke-dasharray: none; stroke-linecap: butt; stroke-dashoffset: 0; stroke-linejoin: miter; stroke-miterlimit: 4; fill: rgb(255, 255, 255); fill-rule: nonzero; opacity: 1; stroke-width: 3.00934px;" transform=" translate(-98.3, -64.3)" d="M 94.96779 60.22614 C 102.06522 58.23793 109.61461999999999 72.16693000000001 105.85462 67.66957000000001 C 102.09461999999999 63.17221000000001 98.87944999999999 64.30566 95.07917 61.830510000000004 C 91.27889 59.35535 94.08201000000001 63.831770000000006 92.40759 64.17545 C 89.05874 64.86281 87.87036 62.214349999999996 94.96779 60.22614 z" stroke-linecap="round"/>
      </g>
      <g transform="matrix(1 0 0 1 27.16 45.33)">
        <path style="stroke: rgb(23, 23, 29); stroke-dasharray: none; stroke-linecap: butt; stroke-dashoffset: 0; stroke-linejoin: miter; stroke-miterlimit: 4; fill: rgb(255, 255, 255); fill-rule: nonzero; opacity: 1; stroke-width: 3px;" transform=" translate(-91.45, -87.48)" d="M 88.43886 85.28098 C 90.65384 88.15209 97.36102000000001 99.05093 94.37185000000001 90.63169 C 91.38268000000001 82.21245 92.47329 86.06401000000001 91.28670000000001 82.67088000000001 C 90.10010000000001 79.27775000000001 86.22389000000001 82.40987000000001 88.43887000000001 85.28098000000001 z" stroke-linecap="round"/>
      </g>
      <g transform="matrix(1 0 0 1 11.77 57.09)">
        <path style="stroke: rgb(23, 23, 29); stroke-dasharray: none; stroke-linecap: butt; stroke-dashoffset: 0; stroke-linejoin: miter; stroke-miterlimit: 4; fill: rgb(255, 255, 255); fill-rule: nonzero; opacity: 1; stroke-width: 3px;" transform=" translate(-76.05, -99.24)" d="M 73.09276 95.43516 C 72.77961 97.99969999999999 79.23091 105.98285 79.00647 104.98901 C 78.78202999999999 103.99516999999999 76.23669 95.35401999999999 75.78756 94.21812 C 75.33843 93.08221 73.40592 92.87062 73.09276 95.43516 z" stroke-linecap="round"/>
      </g>
      <g transform="matrix(1 0.07 -0.07 1 -17.11 50.31)">
        <path style="stroke: rgb(23, 23, 29); stroke-dasharray: none; stroke-linecap: butt; stroke-dashoffset: 0; stroke-linejoin: miter; stroke-miterlimit: 4; fill: rgb(255, 255, 255); fill-rule: nonzero; opacity: 1; stroke-width: 2.99268px;" transform=" translate(-47.18, -92.46)" d="M 44.08631 87.32594 C 44.24666 92.03979 50.660579999999996 100.91291000000001 50.25984 100.05804 C 49.859109999999994 99.20317 46.97257 92.68678 47.934659999999994 88.98965000000001 C 48.89675 85.29251000000001 43.925959999999996 82.61209000000001 44.08631 87.32594000000002 z" stroke-linecap="round"/>
      </g>
      <g transform="matrix(1 0 0 1 -4.17 -4.61)">
        <path style="stroke: rgb(23, 23, 29); stroke-dasharray: none; stroke-linecap: butt; stroke-dashoffset: 0; stroke-linejoin: miter; stroke-miterlimit: 4; fill: rgb(255, 255, 255); fill-rule: nonzero; opacity: 1; stroke-width: 3px;" transform=" translate(-60.11, -37.54)" d="M 34.153 52.376 L 34.206 53.919 C 32.58 62.362 40.535 65.891 42.161 66.776 C 45.413 68.546 33.927 74.758 40.649 86.016 C 47.371 97.275 56.445 81.311 60.226 89.965 C 64.007 98.619 79.928 97.149 78.626 89.293 C 77.324 81.437 84.171 86.92 90.2 82.141 C 96.228 77.362 84.991 67.196 92.101 68.078 C 99.211 68.96 100.919 61.383 98.623 56.105 C 97.475 53.466 95.714 49.569 91.563 47.557 C 87.412 45.545 81.328 45.112 80.986 43.304 C 80.3 39.689 77.957 33.769 73.389 33.778 C 68.822 33.787 64.502 27.987 62.884 20.236 C 61.266 12.485 50.752 -70.934 42.003 -71.31 C 32.749 -70.643 20.071 -69.204 14.841 -62.685 C 11.833 -58.935 20.113 -1.12 20.812 3.932 C 21.767 10.848 23.424 16.788 24.839 22.272 C 27.602 29.802 35.318 47.322 34.153 52.376 Z" stroke-linecap="round"/>
      </g>
      <g transform="matrix(1 0 0 1 29.87 23.15)" clip-path="url(#CLIPPATH_38)">
        <clipPath id="CLIPPATH_38">
          <path transform="matrix(1 0 0 1 45.84 13.45) translate(-140, -78.75)" d="M 0 0 L 280 0 L 280 157.5 L 0 157.5 L 0 0 z" stroke-linecap="round"/>
        </clipPath>
        <path style="stroke: rgb(23, 23, 29); stroke-dasharray: none; stroke-linecap: butt; stroke-dashoffset: 0; stroke-linejoin: miter; stroke-miterlimit: 4; fill: none; fill-rule: nonzero; opacity: 1; stroke-width: 3px;" transform=" translate(-94.16, -65.3)" d="M 94.15677 65.29876" stroke-linecap="round"/>
      </g>
      <g transform="matrix(1 0 0 1 -5.53 11.78)" clip-path="url(#CLIPPATH_39)">
        <clipPath id="CLIPPATH_39">
          <path transform="matrix(1 0 0 1 81.23 24.82) translate(-140, -78.75)" d="M 0 0 L 280 0 L 280 157.5 L 0 157.5 L 0 0 z" stroke-linecap="round"/>
        </clipPath>
        <path style="stroke: rgb(23, 23, 29); stroke-dasharray: none; stroke-linecap: butt; stroke-dashoffset: 0; stroke-linejoin: miter; stroke-miterlimit: 4; fill: none; fill-rule: nonzero; opacity: 1; stroke-width: 3px;" transform=" translate(-58.77, -53.93)" d="M 50.27836 62.021 C 53.86198 59.71134 54.71381 59.24356 57.2552 61.16584 C 59.79659 63.08812 60.390330000000006 69.60196 66.97934000000001 67.1008 C 73.56834 64.59964000000001 66.14443000000001 58.560900000000004 68.66890000000001 55.751290000000004 C 71.19337 52.94169 76.07166000000001 48.86469 74.71775000000001 46.296290000000006 C 73.36385000000001 43.72789000000001 67.54346000000001 36.180550000000004 62.54389000000001 42.95020000000001 C 57.54432000000001 49.71985000000001 61.18575000000001 48.48170000000001 51.75073000000001 48.44223000000001 C 42.31571000000001 48.40276000000001 42.995480000000015 50.909760000000006 42.60482000000001 55.65335000000001 C 42.214160000000014 60.39693000000001 46.69474000000001 64.33067000000001 50.27836000000001 62.02100000000001 z" stroke-linecap="round"/>
      </g>
      <g transform="matrix(0.97 0.24 -0.24 0.97 -14.23 33.39)" id="svg_28" clip-path="url(#CLIPPATH_40)">
        <clipPath id="CLIPPATH_40">
          <path transform="matrix(0.97 -0.24 0.24 0.97 88.14 -18.16) translate(-140, -78.75)" d="M 0 0 L 280 0 L 280 157.5 L 0 157.5 L 0 0 z" stroke-linecap="round"/>
        </clipPath>
        <ellipse style="stroke: rgb(23, 23, 29); stroke-dasharray: none; stroke-linecap: butt; stroke-dashoffset: 0; stroke-linejoin: miter; stroke-miterlimit: 4; fill: none; fill-rule: nonzero; opacity: 1; stroke-width: 3.00225px;" cx="0" cy="0" rx="4.62751" ry="7.83188"/>
      </g>
      <g transform="matrix(0.97 -0.23 0.23 0.97 2.74 38.65)" id="svg_30" clip-path="url(#CLIPPATH_41)">
        <clipPath id="CLIPPATH_41">
          <path transform="matrix(0.97 0.23 -0.23 0.97 71.52 14.73) translate(-140, -78.75)" d="M 0 0 L 280 0 L 280 157.5 L 0 157.5 L 0 0 z" stroke-linecap="round"/>
        </clipPath>
        <ellipse style="stroke: rgb(23, 23, 29); stroke-dasharray: none; stroke-linecap: butt; stroke-dashoffset: 0; stroke-linejoin: miter; stroke-miterlimit: 4; fill: none; fill-rule: nonzero; opacity: 1; stroke-width: 3.00934px;" cx="0" cy="0" rx="4.17927" ry="8.40276"/>
      </g>
      <g transform="matrix(0.56 0.83 -0.83 0.56 14.86 30.63)" id="svg_31" clip-path="url(#CLIPPATH_42)">
        <clipPath id="CLIPPATH_42">
          <path transform="matrix(0.56 -0.83 0.83 0.56 38.77 -47.28) translate(-140, -78.75)" d="M 0 0 L 280 0 L 280 157.5 L 0 157.5 L 0 0 z" stroke-linecap="round"/>
        </clipPath>
        <ellipse style="stroke: rgb(23, 23, 29); stroke-dasharray: none; stroke-linecap: butt; stroke-dashoffset: 0; stroke-linejoin: miter; stroke-miterlimit: 4; fill: none; fill-rule: nonzero; opacity: 1; stroke-width: 2.99626px;" cx="0" cy="0" rx="7.28395" ry="3.58109"/>
      </g>
      <g transform="matrix(1 0 0 1 19.9 15.85)" id="svg_32" clip-path="url(#CLIPPATH_43)">
        <clipPath id="CLIPPATH_43">
          <path transform="matrix(1 0 0 1 55.81 20.75) translate(-140, -78.75)" d="M 0 0 L 280 0 L 280 157.5 L 0 157.5 L 0 0 z" stroke-linecap="round"/>
        </clipPath>
        <ellipse style="stroke: rgb(23, 23, 29); stroke-dasharray: none; stroke-linecap: butt; stroke-dashoffset: 0; stroke-linejoin: miter; stroke-miterlimit: 4; fill: none; fill-rule: nonzero; opacity: 1; stroke-width: 3px;" cx="0" cy="0" rx="7.11833" ry="4.56318"/>
      </g>
    </g>
  </g>
  <path style="fill: rgb(216, 216, 216); stroke: rgb(0, 0, 0); stroke-width: 3px;" d="M 1030.29 490.543 L 974.347 545.808"/>
  <g transform="matrix(1 0 0 1 1115.65 518.82)" clip-path="url(#CLIPPATH_44)">
    <clipPath id="CLIPPATH_44">
      <path transform="matrix(1 0 0 1 -43.48 -5.74) translate(-140, -78.75)" d="M 0 0 L 280 0 L 280 157.5 L 0 157.5 L 0 0 z" stroke-linecap="round"/>
    </clipPath>
    <path style="stroke: rgb(23, 23, 29); stroke-dasharray: none; stroke-linecap: butt; stroke-dashoffset: 0; stroke-linejoin: miter; stroke-miterlimit: 4; fill: rgb(166, 51, 214); fill-rule: evenodd; opacity: 1; stroke-width: 3px;" transform=" translate(-183.48, -84.49)" d="M 119.139 32.1697 C 120.84299999999999 31.8719 145.18699999999998 28.6738 180.393 70.4297 C 213.648 109.872 267.13599999999997 105.335 276.96500000000003 104.03899999999999 C 277.29100000000005 103.99499999999999 277.53600000000006 104.594 277.27900000000005 104.79799999999999 L 262.78100000000006 116.35499999999999 C 262.55300000000005 116.53699999999999 262.5930000000001 116.895 262.85800000000006 117.01799999999999 C 264.85400000000004 117.951 271.82300000000004 121.18699999999998 279.7130000000001 124.61599999999999 C 280.0400000000001 124.75699999999999 280.0580000000001 125.21099999999998 279.72100000000006 125.32799999999999 C 272.21400000000006 127.92599999999999 219.68200000000007 145.256 190.49000000000007 132.10899999999998 C 159.00100000000006 117.92499999999998 145.26100000000008 102.88899999999998 127.63000000000007 88.25699999999998 C 110.26800000000007 73.84919999999998 100.03900000000007 66.55049999999997 87.00000000000006 63.100499999999975 C 87.00000000000006 63.100499999999975 111.99000000000005 39.417899999999975 117.84300000000006 33.47519999999997 C 118.66100000000006 32.644799999999975 119.13100000000006 32.17119999999997 119.13900000000007 32.16969999999997 z" stroke-linecap="round"/>
  </g>
  <g transform="matrix(1 0 0 1 1061.77 492.88)" clip-path="url(#CLIPPATH_45)">
    <clipPath id="CLIPPATH_45">
      <path transform="matrix(1 0 0 1 10.4 20.2) translate(-140, -78.75)" d="M 0 0 L 280 0 L 280 157.5 L 0 157.5 L 0 0 z" stroke-linecap="round"/>
    </clipPath>
    <path style="stroke: none; stroke-dasharray: none; stroke-linecap: butt; stroke-dashoffset: 0; stroke-linejoin: miter; stroke-miterlimit: 4; fill: rgb(255, 255, 255); fill-rule: evenodd; opacity: 1; stroke-width: 3px;" transform=" translate(-129.6, -58.55)" d="M 127.091 44.6187 C 125.396 47.105199999999996 122.38799999999999 51.3334 117.758 56.462599999999995 C 109.446 64.22449999999999 116.978 65.74029999999999 120.723 62.646699999999996 C 122.871 60.9745 125.136 59.129999999999995 125.136 59.129999999999995 L 130.213 64.24709999999999 C 130.213 64.24709999999999 128.46 66.81939999999999 126.91399999999999 68.90369999999999 C 122.28499999999998 74.03329999999998 128.22899999999998 75.84489999999998 131.77999999999997 72.11419999999998 C 133.49799999999996 70.14739999999998 141.00599999999997 62.085799999999985 144.16099999999997 57.45539999999998 C 146.95099999999996 54.83959999999998 143.68799999999996 49.833899999999986 139.26899999999998 54.100999999999985 C 137.29699999999997 55.51629999999999 133.60699999999997 58.89899999999999 133.60699999999997 58.89899999999999 C 133.60699999999997 58.89899999999999 129.38299999999998 54.745299999999986 129.41399999999996 54.515199999999986 C 129.44799999999995 53.90999999999998 130.66899999999995 52.85929999999998 131.25599999999997 51.62679999999999 C 134.82599999999996 42.87789999999999 129.36999999999998 41.27469999999999 127.09099999999997 44.61869999999999 z" stroke-linecap="round"/>
  </g>
  <g transform="matrix(1 0 0 1 1077.55 509.21)" clip-path="url(#CLIPPATH_46)">
    <clipPath id="CLIPPATH_46">
      <path transform="matrix(1 0 0 1 -5.38 3.87) translate(-140, -78.75)" d="M 0 0 L 280 0 L 280 157.5 L 0 157.5 L 0 0 z" stroke-linecap="round"/>
    </clipPath>
    <path style="stroke: none; stroke-dasharray: none; stroke-linecap: butt; stroke-dashoffset: 0; stroke-linejoin: miter; stroke-miterlimit: 4; fill: rgb(255, 255, 255); fill-rule: evenodd; opacity: 1; stroke-width: 3px;" transform=" translate(-145.38, -74.88)" d="M 150.596 63.9066 C 153.559 61.500299999999996 155.587 61.7866 156.857 62.5291 C 157.412 62.836 157.667 64.3584 157.759 65.7521 C 156.38299999999998 74.0372 146.73999999999998 86.0709 145.707 86.706 C 142.017 89.1951 138.56199999999998 86.8535 141.665 83.7667 C 143.351 81.8011 144.98999999999998 80.0631 144.98999999999998 80.0631 L 140.38099999999997 77.33550000000001 C 133.23199999999997 83.02600000000001 131.20099999999996 78.38000000000001 134.61799999999997 76.0699 C 138.41899999999995 73.27250000000001 146.61999999999998 67.093 150.59599999999998 63.906600000000005 z M 144.704 72.7055 L 149.12 75.6768 C 149.12 75.6768 154.243 67.8515 152.34900000000002 68.0674 L 144.704 72.7055 z" stroke-linecap="round"/>
  </g>
  <g transform="matrix(1 0 0 1 1095.09 519.67)" clip-path="url(#CLIPPATH_47)">
    <clipPath id="CLIPPATH_47">
      <path transform="matrix(1 0 0 1 -22.92 -6.59) translate(-140, -78.75)" d="M 0 0 L 280 0 L 280 157.5 L 0 157.5 L 0 0 z" stroke-linecap="round"/>
    </clipPath>
    <path style="stroke: none; stroke-dasharray: none; stroke-linecap: butt; stroke-dashoffset: 0; stroke-linejoin: miter; stroke-miterlimit: 4; fill: rgb(255, 255, 255); fill-rule: evenodd; opacity: 1; stroke-width: 3px;" transform=" translate(-162.92, -85.34)" d="M 172.852 81.0428 C 174.288 79.5436 174.78900000000002 74.9165 169.887 73.5179 C 163.204 70.56569999999999 155.642 81.1986 155.642 81.1986 C 155.642 81.1986 151.989 86.3527 152.001 90.9919 C 151.916 95.4218 155.762 97.1683 156.46800000000002 97.5995 C 161.43200000000002 98.25410000000001 161.247 94.6666 160.54100000000003 94.23620000000001 C 159.61200000000002 93.7587 158.25000000000003 93.33350000000002 157.59100000000004 92.0134 C 156.46400000000003 89.79180000000001 158.40900000000005 86.3169 159.67000000000004 84.5447 C 162.04600000000005 81.6798 166.96300000000005 76.0793 169.42100000000005 79.09840000000001 C 170.22900000000004 82.38980000000001 172.06900000000005 81.87380000000002 172.85200000000006 81.04280000000001 z" stroke-linecap="round"/>
  </g>
  <g transform="matrix(1 0 0 1 1106.92 531.18)" clip-path="url(#CLIPPATH_48)">
    <clipPath id="CLIPPATH_48">
      <path transform="matrix(1 0 0 1 -34.75 -18.1) translate(-140, -78.75)" d="M 0 0 L 280 0 L 280 157.5 L 0 157.5 L 0 0 z" stroke-linecap="round"/>
    </clipPath>
    <path style="stroke: none; stroke-dasharray: none; stroke-linecap: butt; stroke-dashoffset: 0; stroke-linejoin: miter; stroke-miterlimit: 4; fill: rgb(255, 255, 255); fill-rule: evenodd; opacity: 1; stroke-width: 3px;" transform=" translate(-174.75, -96.85)" d="M 177.217 82.765 C 174.43400000000003 85.81400000000001 174.205 90.2426 168.211 95.7326 C 166.762 97.0805 163.67600000000002 99.3596 163.27800000000002 99.7009 C 160.27200000000002 102.04400000000001 162.75100000000003 105.339 168.79800000000003 101.60300000000001 C 170.23100000000002 100.77100000000002 172.61600000000004 98.063 172.61600000000004 98.063 L 174.27400000000003 98.5965 C 174.27400000000003 98.5965 172.91900000000004 105.28800000000001 172.06600000000003 108.031 C 171.27400000000003 110.69300000000001 175.07700000000003 114.123 177.35900000000004 109.227 C 177.96100000000004 107.467 178.40100000000004 104.92 178.60100000000003 101.52300000000001 C 178.60100000000003 101.52300000000001 178.83400000000003 99.07390000000001 178.25900000000001 98.48320000000001 C 178.25900000000001 98.48320000000001 185.44000000000003 95.7844 186.775 94.08290000000001 C 188.173 92.30100000000002 187.898 90.5002 182.54500000000002 92.02480000000001 C 177.19400000000002 93.55020000000002 176.27200000000002 94.39450000000001 176.27200000000002 94.39450000000001 C 176.27200000000002 94.39450000000001 179.05200000000002 90.68530000000001 180.36800000000002 87.5198 C 182.193 84.3661 179.55300000000003 80.2829 177.217 82.765 z" stroke-linecap="round"/>
  </g>
  <g transform="matrix(1 0 0 1 1130.69 545.69)" clip-path="url(#CLIPPATH_49)">
    <clipPath id="CLIPPATH_49">
      <path transform="matrix(1 0 0 1 -58.52 -32.61) translate(-140, -78.75)" d="M 0 0 L 280 0 L 280 157.5 L 0 157.5 L 0 0 z" stroke-linecap="round"/>
    </clipPath>
    <path style="stroke: none; stroke-dasharray: none; stroke-linecap: butt; stroke-dashoffset: 0; stroke-linejoin: miter; stroke-miterlimit: 4; fill: rgb(255, 255, 255); fill-rule: evenodd; opacity: 1; stroke-width: 3px;" transform=" translate(-198.52, -111.36)" d="M 199.427 100.295 C 197.01999999999998 101.19500000000001 194.578 103.82000000000001 192.584 108.558 C 189.666 115.65700000000001 190.754 120.98100000000001 196.061 122.409 C 201.37 123.837 201.81300000000002 119.742 201.411 119.42 C 201.089 119.16 201.185 118.699 198.814 118.548 C 196.44 118.397 195.314 116.818 195.432 113.137 C 195.534 110.657 196.914 106.37 199.46699999999998 104.778 C 200.22699999999998 104.308 200.742 104.31800000000001 201.033 104.28200000000001 C 202.196 104.13600000000001 202.88799999999998 105.09700000000001 202.986 105.308 C 204.707 108.308 206.13 106.48500000000001 206.03799999999998 104.25200000000001 C 205.38199999999998 100.894 203.22199999999998 99.29500000000002 199.427 100.29500000000002 z" stroke-linecap="round"/>
  </g>
  <g transform="matrix(1 0 0 1 1143.84 549.7)" clip-path="url(#CLIPPATH_50)">
    <clipPath id="CLIPPATH_50">
      <path transform="matrix(1 0 0 1 -71.67 -36.62) translate(-140, -78.75)" d="M 0 0 L 280 0 L 280 157.5 L 0 157.5 L 0 0 z" stroke-linecap="round"/>
    </clipPath>
    <path style="stroke: none; stroke-dasharray: none; stroke-linecap: butt; stroke-dashoffset: 0; stroke-linejoin: miter; stroke-miterlimit: 4; fill: rgb(255, 255, 255); fill-rule: evenodd; opacity: 1; stroke-width: 3px;" transform=" translate(-211.67, -115.37)" d="M 210.364 105.988 C 211.535 103.322 215.198 102.51 213.487 108.881 C 212.95 113.254 209.30599999999998 120.534 209.56799999999998 121.478 C 209.82999999999998 122.42199999999998 214.51299999999998 123.37899999999999 215.83899999999997 123.509 C 217.16299999999998 123.641 219.05399999999997 125.104 218.05699999999996 126.041 C 217.13799999999995 127.04299999999999 215.98999999999995 126.66 215.69999999999996 126.695 C 215.40999999999997 126.72999999999999 204.51999999999995 125.25 205.01599999999996 123.193 C 205.51399999999995 121.137 205.88399999999996 120.25399999999999 206.97899999999996 116.863 C 208.07499999999996 113.471 209.19199999999995 108.654 210.36399999999995 105.988 z" stroke-linecap="round"/>
  </g>
  <g transform="matrix(1 0 0 1 1160.41 551.63)" clip-path="url(#CLIPPATH_51)">
    <clipPath id="CLIPPATH_51">
      <path transform="matrix(1 0 0 1 -88.24 -38.55) translate(-140, -78.75)" d="M 0 0 L 280 0 L 280 157.5 L 0 157.5 L 0 0 z" stroke-linecap="round"/>
    </clipPath>
    <path style="stroke: none; stroke-dasharray: none; stroke-linecap: butt; stroke-dashoffset: 0; stroke-linejoin: miter; stroke-miterlimit: 4; fill: rgb(255, 255, 255); fill-rule: evenodd; opacity: 1; stroke-width: 3px;" transform=" translate(-228.24, -117.3)" d="M 222.865 108.585 C 223.52 106.571 226.006 106.27999999999999 226.23100000000002 108.86 C 226.38600000000002 110.852 224.27900000000002 118.249 224.395 121.81 C 224.64600000000002 123.343 226.162 124.283 227.41 123.541 C 229.046 122.307 230.242 117.922 231.166 114.387 C 231.482 112.638 231.571 111.231 231.99 110.363 C 233.666 107.56 235.722 109.33 235.464 112.86 C 234.86599999999999 116.654 233.369 122.544 232.013 124.267 C 230.721 125.908 229.18800000000002 128.024 226.536 127.51599999999999 C 225.852 127.37299999999999 220.336 125.78599999999999 221.067 119.29599999999999 C 221.991 112.559 222.209 110.59799999999998 222.865 108.585 z" stroke-linecap="round"/>
  </g>
  <g transform="matrix(1 0 0 1 1175.9 553.44)" clip-path="url(#CLIPPATH_52)">
    <clipPath id="CLIPPATH_52">
      <path transform="matrix(1 0 0 1 -103.72 -40.35) translate(-140, -78.75)" d="M 0 0 L 280 0 L 280 157.5 L 0 157.5 L 0 0 z" stroke-linecap="round"/>
    </clipPath>
    <path style="stroke: none; stroke-dasharray: none; stroke-linecap: butt; stroke-dashoffset: 0; stroke-linejoin: miter; stroke-miterlimit: 4; fill: rgb(255, 255, 255); fill-rule: evenodd; opacity: 1; stroke-width: 3px;" transform=" translate(-243.72, -119.1)" d="M 241.63 110.195 C 245.684 109.705 248.37099999999998 110.121 249.935 111.636 C 250.725 112.79899999999999 250.601 114.964 249.591 116.42 C 248.627 117.649 247.55 118.519 247.55 118.519 C 249.35600000000002 119.561 249.89000000000001 122.07100000000001 249.137 124.702 C 248.385 127.333 245.012 128.608 240.04 128.099 C 238.398 127.853 236.852 127.151 237.011 126.612 C 237.412 125.6 239.059 112.137 239.059 112.137 C 239.267 111.37 239.233 110.412 241.63 110.19500000000001 z M 242.005 112.892 L 241.917 117.348 C 241.917 117.348 246.487 117.536 246.966 115.256 C 247.443 112.974 244.45100000000002 113.115 242.005 112.892 z M 241.167 120.47699999999999 C 241.167 120.47699999999999 240.195 125.55999999999999 240.243 125.332 C 240.355 125.02199999999999 246.529 126.446 246.65 122.94699999999999 C 246.77100000000002 119.44999999999999 241.167 120.47699999999999 241.167 120.47699999999999 z" stroke-linecap="round"/>
  </g>
</svg>